<svg id="Layer_1" data-name="Layer 1" xmlns="http://www.w3.org/2000/svg" xmlns:xlink="http://www.w3.org/1999/xlink" viewBox="0 0 960 127"><defs><style>.cls-1,.cls-4{fill:none;}.cls-2{clip-path:url(#clip-path);}.cls-3{fill:#ccc;}.cls-4,.cls-5{stroke:#666;stroke-width:2px;}.cls-4{stroke-linejoin:round;}.cls-5{fill:#666;stroke-miterlimit:10;}.cls-6{fill:#f1c232;}.cls-7{fill:#ead1dc;}.cls-8{fill-opacity:0;}</style><clipPath id="clip-path"><rect class="cls-1" y="-152" width="960" height="540"/></clipPath></defs><title>compilation_figure</title><g class="cls-2"><path class="cls-3" d="M8.76,53.22h0a6,6,0,0,1,6-6H176a6,6,0,0,1,6,6V77.34a6,6,0,0,1-6,6H14.79a6,6,0,0,1-6-6Z"/><path class="cls-4" d="M8.76,53.22h0a6,6,0,0,1,6-6H176a6,6,0,0,1,6,6V77.34a6,6,0,0,1-6,6H14.79a6,6,0,0,1-6-6Z"/><path d="M44.34,59h2V73.82h-2V66.91H38.43v6.91h-2V59h2v6.27h5.91Zm9.27,3.45a4.34,4.34,0,0,1,3.47,1.41,6.32,6.32,0,0,1,1.23,4.27v.69h-8a3.74,3.74,0,0,0,1.14,2.64,4.2,4.2,0,0,0,2.86.89,8.79,8.79,0,0,0,1.8-.16,5,5,0,0,0,1.14-.37l.27,1.69a6.2,6.2,0,0,1-1.3.41,9.31,9.31,0,0,1-2.11.22,6.83,6.83,0,0,1-2.55-.44,5,5,0,0,1-2.89-3,7.32,7.32,0,0,1-.36-2.33,6.71,6.71,0,0,1,.45-2.58A5.53,5.53,0,0,1,50,63.87a4.9,4.9,0,0,1,1.69-1.09A5.33,5.33,0,0,1,53.61,62.41Zm2.69,4.77a3.23,3.23,0,0,0-.75-2.25,2.5,2.5,0,0,0-2-.83,2.89,2.89,0,0,0-1.25.27,3.33,3.33,0,0,0-1,.7,3.15,3.15,0,0,0-.64,1,4.31,4.31,0,0,0-.31,1.13Zm11.2,6.91a4.74,4.74,0,0,1-1.75-.28,2.52,2.52,0,0,1-1.11-.87,3.74,3.74,0,0,1-.58-1.42,11.19,11.19,0,0,1-.16-2V59H60.68V57.31h5.19V69.52A7,7,0,0,0,66,70.9a2.42,2.42,0,0,0,.33.84,1.23,1.23,0,0,0,.56.45,2.63,2.63,0,0,0,.8.11,5,5,0,0,0,1.28-.16,4.11,4.11,0,0,0,1-.37l.28,1.69-.41.19-.62.19a5.41,5.41,0,0,1-.78.17A4.8,4.8,0,0,1,67.5,74.09Zm12,0a4.74,4.74,0,0,1-1.75-.28,2.52,2.52,0,0,1-1.11-.87,3.74,3.74,0,0,1-.58-1.42,11.19,11.19,0,0,1-.16-2V59H72.68V57.31h5.19V69.52A7,7,0,0,0,78,70.9a2.42,2.42,0,0,0,.33.84,1.23,1.23,0,0,0,.56.45,2.63,2.63,0,0,0,.8.11,5,5,0,0,0,1.28-.16,4.11,4.11,0,0,0,1-.37l.28,1.69-.41.19-.62.19a5.41,5.41,0,0,1-.78.17A4.8,4.8,0,0,1,79.5,74.09Zm14.94-5.83a7.24,7.24,0,0,1-.37,2.39,5.52,5.52,0,0,1-1,1.83,4.66,4.66,0,0,1-1.61,1.19,4.93,4.93,0,0,1-2,.42,4.75,4.75,0,0,1-2-.42,4.7,4.7,0,0,1-1.59-1.19,5.52,5.52,0,0,1-1-1.83,7.86,7.86,0,0,1,0-4.8,5.32,5.32,0,0,1,1-1.83,4.7,4.7,0,0,1,1.59-1.19,4.75,4.75,0,0,1,2-.42,4.93,4.93,0,0,1,2,.42A4.66,4.66,0,0,1,93,64a5.32,5.32,0,0,1,1,1.83A7.29,7.29,0,0,1,94.43,68.26Zm-2,0a4.86,4.86,0,0,0-.81-3,2.62,2.62,0,0,0-2.22-1.09,2.57,2.57,0,0,0-2.17,1.09,5.93,5.93,0,0,0,0,5.94,2.57,2.57,0,0,0,2.17,1.09,2.62,2.62,0,0,0,2.22-1.09A4.85,4.85,0,0,0,92.39,68.26Zm10.78,4a1.85,1.85,0,0,1-.48,1.27,1.61,1.61,0,0,1-1.27.55,1.66,1.66,0,0,1-1.31-.55,1.89,1.89,0,0,1-.47-1.27,1.93,1.93,0,0,1,.47-1.3,1.64,1.64,0,0,1,1.31-.56,1.59,1.59,0,0,1,1.27.56A1.89,1.89,0,0,1,103.17,72.29ZM114.78,61a1.5,1.5,0,0,1-1.08-.44,1.55,1.55,0,0,1-.45-1.17,1.52,1.52,0,0,1,.45-1.17,1.57,1.57,0,0,1,2.17,0,1.55,1.55,0,0,1,.44,1.17,1.58,1.58,0,0,1-.44,1.17A1.48,1.48,0,0,1,114.78,61Zm-4.66,3.38V62.68h6.48v11a5.14,5.14,0,0,1-.33,2A3.54,3.54,0,0,1,115.4,77a3.14,3.14,0,0,1-1.23.72,5,5,0,0,1-1.5.22,9.39,9.39,0,0,1-1.84-.19,6.6,6.6,0,0,1-1.73-.61l.59-1.67a8.81,8.81,0,0,0,1.34.48,5.27,5.27,0,0,0,1.41.2,2.45,2.45,0,0,0,1.58-.5,2.3,2.3,0,0,0,.63-1.89V64.34Zm15.39,8.06q.73,0,1.33,0t1-.11V68.93a4.61,4.61,0,0,0-.92-.19,8.06,8.06,0,0,0-1.14-.08,6.19,6.19,0,0,0-1.08.09,2.83,2.83,0,0,0-.94.3,1.85,1.85,0,0,0-.67.56,1.36,1.36,0,0,0-.27.86,1.6,1.6,0,0,0,.73,1.52A4.11,4.11,0,0,0,125.51,72.4Zm-.2-10a6.08,6.08,0,0,1,2.09.31,3.54,3.54,0,0,1,1.39.88,3,3,0,0,1,.75,1.34,6.36,6.36,0,0,1,.22,1.72v7l-1.84.28a15.71,15.71,0,0,1-2.34.17,10.11,10.11,0,0,1-1.78-.16,4.69,4.69,0,0,1-1.53-.55,3.1,3.1,0,0,1-1.08-1.09,3.52,3.52,0,0,1-.41-1.78,2.92,2.92,0,0,1,.42-1.61,3.33,3.33,0,0,1,1.08-1.08,4.55,4.55,0,0,1,1.5-.58,8.11,8.11,0,0,1,1.73-.19,10,10,0,0,1,2.3.27v-.56a4.25,4.25,0,0,0-.11-1,2.12,2.12,0,0,0-.41-.84,2,2,0,0,0-.81-.61,3.23,3.23,0,0,0-1.33-.23,10.33,10.33,0,0,0-1.81.14,6.94,6.94,0,0,0-1.17.3l-.23-1.64a5.41,5.41,0,0,1,1.34-.33A12.56,12.56,0,0,1,125.31,62.41Zm17.36.27q-.44,1.56-1,3.06t-1.12,2.94q-.58,1.42-1.19,2.72t-1.14,2.42h-1.8q-1.14-2.25-2.3-5.12t-2-6h2.16q.3,1.06.66,2.23t.78,2.36q.42,1.17.83,2.27t.83,2q.42-.86.86-2t.87-2.27q.44-1.19.83-2.36t.69-2.23Zm6.84,9.72q.73,0,1.33,0t1-.11V68.93a4.61,4.61,0,0,0-.92-.19,8.06,8.06,0,0,0-1.14-.08,6.19,6.19,0,0,0-1.08.09,2.83,2.83,0,0,0-.94.3,1.85,1.85,0,0,0-.67.56,1.36,1.36,0,0,0-.27.86,1.6,1.6,0,0,0,.73,1.52A4.11,4.11,0,0,0,149.51,72.4Zm-.2-10a6.08,6.08,0,0,1,2.09.31,3.54,3.54,0,0,1,1.39.88,3,3,0,0,1,.75,1.34,6.36,6.36,0,0,1,.22,1.72v7l-1.84.28a15.71,15.71,0,0,1-2.34.17,10.11,10.11,0,0,1-1.78-.16,4.69,4.69,0,0,1-1.53-.55,3.1,3.1,0,0,1-1.08-1.09,3.52,3.52,0,0,1-.41-1.78,2.92,2.92,0,0,1,.42-1.61,3.33,3.33,0,0,1,1.08-1.08,4.55,4.55,0,0,1,1.5-.58,8.11,8.11,0,0,1,1.73-.19,10,10,0,0,1,2.3.27v-.56a4.25,4.25,0,0,0-.11-1,2.12,2.12,0,0,0-.41-.84,2,2,0,0,0-.81-.61,3.23,3.23,0,0,0-1.33-.23,10.33,10.33,0,0,0-1.81.14,6.94,6.94,0,0,0-1.17.3l-.23-1.64a5.41,5.41,0,0,1,1.34-.33A12.56,12.56,0,0,1,149.31,62.41Z"/><path class="cls-3" d="M408.46,53.22h0a6,6,0,0,1,6-6h161.2a6,6,0,0,1,6,6V77.34a6,6,0,0,1-6,6H414.49a6,6,0,0,1-6-6Z"/><path class="cls-4" d="M408.46,53.22h0a6,6,0,0,1,6-6h161.2a6,6,0,0,1,6,6V77.34a6,6,0,0,1-6,6H414.49a6,6,0,0,1-6-6Z"/><path d="M438,59h2V73.82h-2V66.91h-5.91v6.91h-2V59h2v6.27H438Zm9.27,3.45a4.34,4.34,0,0,1,3.47,1.41A6.32,6.32,0,0,1,452,68.09v.69h-8a3.74,3.74,0,0,0,1.14,2.64,4.2,4.2,0,0,0,2.86.89,8.79,8.79,0,0,0,1.8-.16,5,5,0,0,0,1.14-.37l.27,1.69a6.2,6.2,0,0,1-1.3.41,9.31,9.31,0,0,1-2.11.22,6.83,6.83,0,0,1-2.55-.44,5,5,0,0,1-2.89-3,7.32,7.32,0,0,1-.36-2.33,6.71,6.71,0,0,1,.45-2.58,5.53,5.53,0,0,1,1.2-1.83,4.9,4.9,0,0,1,1.69-1.09A5.33,5.33,0,0,1,447.31,62.41ZM450,67.18a3.23,3.23,0,0,0-.75-2.25,2.5,2.5,0,0,0-2-.83,2.89,2.89,0,0,0-1.25.27,3.33,3.33,0,0,0-1,.7,3.15,3.15,0,0,0-.64,1,4.31,4.31,0,0,0-.31,1.13Zm11.2,6.91a4.74,4.74,0,0,1-1.75-.28,2.52,2.52,0,0,1-1.11-.87,3.74,3.74,0,0,1-.58-1.42,11.2,11.2,0,0,1-.16-2V59h-3.22V57.31h5.19V69.52a7,7,0,0,0,.11,1.38,2.42,2.42,0,0,0,.33.84,1.23,1.23,0,0,0,.56.45,2.63,2.63,0,0,0,.8.11,5,5,0,0,0,1.28-.16,4.11,4.11,0,0,0,1-.37l.28,1.69-.41.19-.62.19a5.41,5.41,0,0,1-.78.17A4.8,4.8,0,0,1,461.2,74.09Zm12,0a4.74,4.74,0,0,1-1.75-.28,2.52,2.52,0,0,1-1.11-.87,3.74,3.74,0,0,1-.58-1.42,11.19,11.19,0,0,1-.16-2V59h-3.22V57.31h5.19V69.52a7,7,0,0,0,.11,1.38,2.42,2.42,0,0,0,.33.84,1.23,1.23,0,0,0,.56.45,2.63,2.63,0,0,0,.8.11,5,5,0,0,0,1.28-.16,4.11,4.11,0,0,0,1-.37l.28,1.69-.41.19-.62.19a5.41,5.41,0,0,1-.78.17A4.8,4.8,0,0,1,473.2,74.09Zm14.94-5.83a7.24,7.24,0,0,1-.37,2.39,5.52,5.52,0,0,1-1,1.83,4.66,4.66,0,0,1-1.61,1.19,4.93,4.93,0,0,1-2,.42,4.75,4.75,0,0,1-2-.42,4.7,4.7,0,0,1-1.59-1.19,5.52,5.52,0,0,1-1-1.83,7.86,7.86,0,0,1,0-4.8,5.32,5.32,0,0,1,1-1.83,4.7,4.7,0,0,1,1.59-1.19,4.75,4.75,0,0,1,2-.42,4.93,4.93,0,0,1,2,.42A4.66,4.66,0,0,1,486.71,64a5.32,5.32,0,0,1,1,1.83A7.29,7.29,0,0,1,488.14,68.26Zm-2,0a4.86,4.86,0,0,0-.81-3,2.62,2.62,0,0,0-2.22-1.09,2.57,2.57,0,0,0-2.17,1.09,5.93,5.93,0,0,0,0,5.94,2.57,2.57,0,0,0,2.17,1.09,2.62,2.62,0,0,0,2.22-1.09A4.85,4.85,0,0,0,486.09,68.26Zm10.78,4a1.85,1.85,0,0,1-.48,1.27,1.61,1.61,0,0,1-1.27.55,1.66,1.66,0,0,1-1.31-.55,1.89,1.89,0,0,1-.47-1.27,1.93,1.93,0,0,1,.47-1.3,1.64,1.64,0,0,1,1.31-.56,1.59,1.59,0,0,1,1.27.56A1.89,1.89,0,0,1,496.87,72.29Zm5.39-4a6.41,6.41,0,0,1,.48-2.61,5.05,5.05,0,0,1,1.31-1.83,5.47,5.47,0,0,1,2-1.06,7.81,7.81,0,0,1,2.39-.36,11.94,11.94,0,0,1,1.63.11,9.7,9.7,0,0,1,1.72.41l-.45,1.7a6.37,6.37,0,0,0-1.45-.37,11.22,11.22,0,0,0-1.33-.08,5.58,5.58,0,0,0-1.64.23,3.36,3.36,0,0,0-1.33.72,3.49,3.49,0,0,0-.91,1.27,5.51,5.51,0,0,0,0,3.7,3.39,3.39,0,0,0,.88,1.25,3.63,3.63,0,0,0,1.34.72,6.24,6.24,0,0,0,1.77.23,13.31,13.31,0,0,0,1.47-.08,8.1,8.1,0,0,0,1.55-.37l.3,1.66a8.33,8.33,0,0,1-1.72.44,11.53,11.53,0,0,1-1.86.14,7.77,7.77,0,0,1-2.47-.37,5.54,5.54,0,0,1-1.92-1.09,5,5,0,0,1-1.25-1.81A6.78,6.78,0,0,1,502.26,68.27Zm18.94,5.81a4.74,4.74,0,0,1-1.75-.28,2.52,2.52,0,0,1-1.11-.87,3.74,3.74,0,0,1-.58-1.42,11.19,11.19,0,0,1-.16-2V59h-3.22V57.31h5.19V69.52a7,7,0,0,0,.11,1.38,2.42,2.42,0,0,0,.33.84,1.23,1.23,0,0,0,.56.45,2.63,2.63,0,0,0,.8.11,5,5,0,0,0,1.28-.16,4.11,4.11,0,0,0,1-.37l.28,1.69-.41.19-.62.19a5.41,5.41,0,0,1-.78.17A4.8,4.8,0,0,1,521.2,74.09Zm10-1.69q.73,0,1.33,0t1-.11V68.93a4.61,4.61,0,0,0-.92-.19,8.06,8.06,0,0,0-1.14-.08,6.19,6.19,0,0,0-1.08.09,2.83,2.83,0,0,0-.94.3,1.85,1.85,0,0,0-.67.56,1.36,1.36,0,0,0-.27.86,1.6,1.6,0,0,0,.73,1.52A4.11,4.11,0,0,0,531.21,72.4Zm-.2-10a6.08,6.08,0,0,1,2.09.31,3.54,3.54,0,0,1,1.39.88,3,3,0,0,1,.75,1.34,6.36,6.36,0,0,1,.22,1.72v7l-1.84.28a15.71,15.71,0,0,1-2.34.17,10.11,10.11,0,0,1-1.78-.16,4.69,4.69,0,0,1-1.53-.55,3.1,3.1,0,0,1-1.08-1.09,3.52,3.52,0,0,1-.41-1.78,2.92,2.92,0,0,1,.42-1.61A3.33,3.33,0,0,1,528,67.82a4.55,4.55,0,0,1,1.5-.58,8.11,8.11,0,0,1,1.73-.19,10,10,0,0,1,2.3.27v-.56a4.25,4.25,0,0,0-.11-1,2.12,2.12,0,0,0-.41-.84,2,2,0,0,0-.81-.61,3.23,3.23,0,0,0-1.33-.23,10.33,10.33,0,0,0-1.81.14,6.94,6.94,0,0,0-1.17.3l-.23-1.64a5.41,5.41,0,0,1,1.34-.33A12.56,12.56,0,0,1,531,62.41ZM545.51,71a1.17,1.17,0,0,0-.5-1,4.49,4.49,0,0,0-1.22-.67q-.73-.3-1.59-.56a9.19,9.19,0,0,1-1.59-.69,4.34,4.34,0,0,1-1.23-1,2.43,2.43,0,0,1-.48-1.56A2.81,2.81,0,0,1,540,63.32a5.31,5.31,0,0,1,3.42-.91,13.05,13.05,0,0,1,1.88.14,9.56,9.56,0,0,1,1.67.34l-.36,1.78a3.86,3.86,0,0,0-.53-.2,5.49,5.49,0,0,0-.77-.19,7.48,7.48,0,0,0-.92-.14q-.48,0-.94,0-2.59,0-2.59,1.42a1,1,0,0,0,.48.84,6.46,6.46,0,0,0,1.23.64l1.61.59a9,9,0,0,1,1.61.73,4.15,4.15,0,0,1,1.23,1,2.36,2.36,0,0,1,.5,1.55,2.69,2.69,0,0,1-1.19,2.34,6.55,6.55,0,0,1-3.72.83,10.28,10.28,0,0,1-2.11-.2,9.07,9.07,0,0,1-1.83-.56l.39-1.8a12.21,12.21,0,0,0,1.77.63,7.56,7.56,0,0,0,2,.25Q545.51,72.4,545.51,71Zm12,0a1.17,1.17,0,0,0-.5-1,4.48,4.48,0,0,0-1.22-.67q-.73-.3-1.59-.56a9.19,9.19,0,0,1-1.59-.69,4.34,4.34,0,0,1-1.23-1,2.43,2.43,0,0,1-.48-1.56A2.81,2.81,0,0,1,552,63.32a5.31,5.31,0,0,1,3.42-.91,13.05,13.05,0,0,1,1.88.14,9.56,9.56,0,0,1,1.67.34l-.36,1.78a3.86,3.86,0,0,0-.53-.2,5.49,5.49,0,0,0-.77-.19,7.48,7.48,0,0,0-.92-.14q-.48,0-.94,0-2.59,0-2.59,1.42a1,1,0,0,0,.48.84,6.46,6.46,0,0,0,1.23.64l1.61.59a9,9,0,0,1,1.61.73,4.15,4.15,0,0,1,1.23,1,2.36,2.36,0,0,1,.5,1.55,2.69,2.69,0,0,1-1.19,2.34,6.55,6.55,0,0,1-3.72.83,10.28,10.28,0,0,1-2.11-.2,9.07,9.07,0,0,1-1.83-.56l.39-1.8a12.21,12.21,0,0,0,1.77.63,7.56,7.56,0,0,0,2,.25Q557.51,72.4,557.51,71Z"/><path class="cls-4" d="M197,65.28h36.57"/><path class="cls-5" d="M233.59,68.58l9.08-3.3L233.59,62Z"/><path class="cls-6" d="M260.59,49.14h69.29V81.42H260.59Z"/><path class="cls-4" d="M260.59,49.14h69.29V81.42H260.59Z"/><path d="M275.45,62a1.2,1.2,0,0,1-.86-.34,1.22,1.22,0,0,1-.36-.92,1.24,1.24,0,0,1,.36-.94,1.2,1.2,0,0,1,.86-.34,1.15,1.15,0,0,1,.84.34,1.24,1.24,0,0,1,.36.94,1.22,1.22,0,0,1-.36.92A1.15,1.15,0,0,1,275.45,62Zm-3.69,2.69V63.39h5.13v8.72a4,4,0,0,1-.27,1.55,2.64,2.64,0,0,1-.69,1,2.42,2.42,0,0,1-1,.58,3.89,3.89,0,0,1-1.17.17,7,7,0,0,1-1.47-.16,6.3,6.3,0,0,1-1.37-.47l.48-1.34a5.61,5.61,0,0,0,1,.39,3.89,3.89,0,0,0,1.11.17,1.93,1.93,0,0,0,1.25-.39,1.85,1.85,0,0,0,.5-1.52V64.7Zm12,6.38q.59,0,1,0l.78-.09V68.33a4.19,4.19,0,0,0-.73-.14,6.2,6.2,0,0,0-.91-.06,5.86,5.86,0,0,0-.86.06,2.34,2.34,0,0,0-.73.23,1.5,1.5,0,0,0-.53.45,1.1,1.1,0,0,0-.2.69,1.25,1.25,0,0,0,.58,1.19A3.17,3.17,0,0,0,283.76,71.08Zm-.16-7.91a4.83,4.83,0,0,1,1.67.25,2.75,2.75,0,0,1,1.08.69,2.43,2.43,0,0,1,.59,1.06,5.18,5.18,0,0,1,.17,1.38V72l-1.45.22a11.8,11.8,0,0,1-1.84.14,7.84,7.84,0,0,1-1.41-.12,3.45,3.45,0,0,1-1.22-.42,2.56,2.56,0,0,1-.86-.87,2.81,2.81,0,0,1-.31-1.41,2.31,2.31,0,0,1,.33-1.27,2.66,2.66,0,0,1,.84-.86,3.72,3.72,0,0,1,1.2-.47,6.62,6.62,0,0,1,1.36-.14,8.2,8.2,0,0,1,1.83.2v-.44a3,3,0,0,0-.09-.75,1.5,1.5,0,0,0-.33-.67,1.52,1.52,0,0,0-.64-.48,2.51,2.51,0,0,0-1-.19,8.14,8.14,0,0,0-1.42.11,7.11,7.11,0,0,0-.94.22l-.19-1.28a4.09,4.09,0,0,1,1.08-.27A9.7,9.7,0,0,1,283.61,63.17Zm13.58.22q-.34,1.23-.78,2.42t-.91,2.33q-.45,1.13-.92,2.16t-.91,1.91h-1.44q-.89-1.78-1.81-4.06a49.82,49.82,0,0,1-1.61-4.75h1.72q.23.83.52,1.77t.63,1.86q.33.94.66,1.8t.66,1.55q.31-.69.66-1.55t.7-1.8q.34-.94.66-1.86t.55-1.77Zm5.23,7.69q.59,0,1,0l.78-.09V68.33a4.19,4.19,0,0,0-.73-.14,6.2,6.2,0,0,0-.91-.06,5.86,5.86,0,0,0-.86.06,2.34,2.34,0,0,0-.73.23,1.5,1.5,0,0,0-.53.45,1.1,1.1,0,0,0-.2.69,1.25,1.25,0,0,0,.58,1.19A3.17,3.17,0,0,0,302.42,71.08Zm-.16-7.91a4.83,4.83,0,0,1,1.67.25,2.75,2.75,0,0,1,1.08.69,2.43,2.43,0,0,1,.59,1.06,5.18,5.18,0,0,1,.17,1.38V72l-1.45.22a11.8,11.8,0,0,1-1.84.14,7.84,7.84,0,0,1-1.41-.12,3.45,3.45,0,0,1-1.22-.42A2.56,2.56,0,0,1,299,71a2.81,2.81,0,0,1-.31-1.41,2.31,2.31,0,0,1,.33-1.27,2.66,2.66,0,0,1,.84-.86,3.72,3.72,0,0,1,1.2-.47,6.62,6.62,0,0,1,1.36-.14,8.2,8.2,0,0,1,1.83.2v-.44a3,3,0,0,0-.09-.75,1.5,1.5,0,0,0-.33-.67,1.52,1.52,0,0,0-.64-.48,2.51,2.51,0,0,0-1-.19,8.14,8.14,0,0,0-1.42.11,7.11,7.11,0,0,0-.94.22l-.19-1.28a4.09,4.09,0,0,1,1.08-.27A9.7,9.7,0,0,1,302.26,63.17Zm5.58,4.64a5.14,5.14,0,0,1,.38-2.06,3.86,3.86,0,0,1,1-1.44,4.42,4.42,0,0,1,1.55-.86,6.3,6.3,0,0,1,1.91-.28,8.84,8.84,0,0,1,1.28.09,7.22,7.22,0,0,1,1.36.31L315,64.92a5.46,5.46,0,0,0-1.16-.28,7,7,0,0,0-1-.08,4.39,4.39,0,0,0-1.3.19,2.75,2.75,0,0,0-1.06.56,2.81,2.81,0,0,0-.7,1,4.27,4.27,0,0,0,0,2.92,2.7,2.7,0,0,0,.69,1,2.91,2.91,0,0,0,1.08.58,4.83,4.83,0,0,0,1.39.19,10.19,10.19,0,0,0,1.16-.06,5.69,5.69,0,0,0,1.23-.3l.22,1.31a6.06,6.06,0,0,1-1.34.34,9.46,9.46,0,0,1-1.48.11,6.46,6.46,0,0,1-2-.28,4.42,4.42,0,0,1-1.52-.86,4.06,4.06,0,0,1-1-1.44A5.49,5.49,0,0,1,307.84,67.81Z"/><path class="cls-4" d="M344.89,65.28h36.57"/><path class="cls-5" d="M381.46,68.58l9.08-3.3L381.46,62Z"/><path class="cls-4" d="M596.72,65.28h36.57"/><path class="cls-5" d="M633.29,68.58l9.08-3.3L633.29,62Z"/><path class="cls-6" d="M660.3,49.14h69.29V81.42H660.3Z"/><path class="cls-4" d="M660.3,49.14h69.29V81.42H660.3Z"/><path d="M675.15,62a1.2,1.2,0,0,1-.86-.34,1.22,1.22,0,0,1-.36-.92,1.24,1.24,0,0,1,.36-.94,1.2,1.2,0,0,1,.86-.34,1.15,1.15,0,0,1,.84.34,1.24,1.24,0,0,1,.36.94,1.22,1.22,0,0,1-.36.92A1.15,1.15,0,0,1,675.15,62Zm-3.69,2.69V63.39h5.13v8.72a4,4,0,0,1-.27,1.55,2.64,2.64,0,0,1-.69,1,2.42,2.42,0,0,1-1,.58,3.89,3.89,0,0,1-1.17.17,7,7,0,0,1-1.47-.16,6.3,6.3,0,0,1-1.37-.47l.48-1.34a5.61,5.61,0,0,0,1,.39,3.89,3.89,0,0,0,1.11.17,1.93,1.93,0,0,0,1.25-.39,1.85,1.85,0,0,0,.5-1.52V64.7Zm12,6.38q.59,0,1,0l.78-.09V68.33a4.19,4.19,0,0,0-.73-.14,6.2,6.2,0,0,0-.91-.06,5.86,5.86,0,0,0-.86.06,2.34,2.34,0,0,0-.73.23,1.5,1.5,0,0,0-.53.45,1.1,1.1,0,0,0-.2.69,1.25,1.25,0,0,0,.58,1.19A3.17,3.17,0,0,0,683.47,71.08Zm-.16-7.91a4.83,4.83,0,0,1,1.67.25,2.75,2.75,0,0,1,1.08.69,2.43,2.43,0,0,1,.59,1.06,5.18,5.18,0,0,1,.17,1.38V72l-1.45.22a11.8,11.8,0,0,1-1.84.14,7.84,7.84,0,0,1-1.41-.12,3.45,3.45,0,0,1-1.22-.42A2.56,2.56,0,0,1,680,71a2.81,2.81,0,0,1-.31-1.41,2.31,2.31,0,0,1,.33-1.27,2.66,2.66,0,0,1,.84-.86,3.72,3.72,0,0,1,1.2-.47,6.62,6.62,0,0,1,1.36-.14,8.2,8.2,0,0,1,1.83.2v-.44a3,3,0,0,0-.09-.75,1.5,1.5,0,0,0-.33-.67,1.52,1.52,0,0,0-.64-.48,2.51,2.51,0,0,0-1-.19,8.14,8.14,0,0,0-1.42.11,7.11,7.11,0,0,0-.94.22l-.19-1.28a4.09,4.09,0,0,1,1.08-.27A9.7,9.7,0,0,1,683.31,63.17Zm13.58.22q-.34,1.23-.78,2.42t-.91,2.33q-.45,1.13-.92,2.16t-.91,1.91h-1.44q-.89-1.78-1.81-4.06a49.82,49.82,0,0,1-1.61-4.75h1.72q.23.83.52,1.77t.63,1.86q.33.94.66,1.8t.66,1.55q.31-.69.66-1.55T694,67q.34-.94.66-1.86t.55-1.77Zm5.23,7.69q.59,0,1,0L704,71V68.33a4.19,4.19,0,0,0-.73-.14,6.2,6.2,0,0,0-.91-.06,5.86,5.86,0,0,0-.86.06,2.34,2.34,0,0,0-.73.23,1.5,1.5,0,0,0-.53.45,1.1,1.1,0,0,0-.2.69,1.25,1.25,0,0,0,.58,1.19A3.17,3.17,0,0,0,702.12,71.08ZM702,63.17a4.83,4.83,0,0,1,1.67.25,2.75,2.75,0,0,1,1.08.69,2.43,2.43,0,0,1,.59,1.06,5.18,5.18,0,0,1,.17,1.38V72l-1.45.22a11.8,11.8,0,0,1-1.84.14,7.84,7.84,0,0,1-1.41-.12,3.45,3.45,0,0,1-1.22-.42,2.56,2.56,0,0,1-.86-.87,2.81,2.81,0,0,1-.31-1.41,2.31,2.31,0,0,1,.33-1.27,2.66,2.66,0,0,1,.84-.86,3.72,3.72,0,0,1,1.2-.47,6.62,6.62,0,0,1,1.36-.14A8.2,8.2,0,0,1,704,67v-.44a3,3,0,0,0-.09-.75,1.5,1.5,0,0,0-.33-.67,1.52,1.52,0,0,0-.64-.48,2.51,2.51,0,0,0-1-.19,8.14,8.14,0,0,0-1.42.11,7.11,7.11,0,0,0-.94.22l-.19-1.28a4.09,4.09,0,0,1,1.08-.27A9.7,9.7,0,0,1,702,63.17Z"/><path class="cls-4" d="M744.59,65.28h36.57"/><path class="cls-5" d="M781.16,68.58l9.08-3.3L781.16,62Z"/><path class="cls-7" d="M821.08,49.21h0c-1.15-7.74,2.63-15.41,9.76-19.75a24.18,24.18,0,0,1,23.71-.63h0a17.68,17.68,0,0,1,12.92-8.39,18.73,18.73,0,0,1,15.07,4.45h0a14.52,14.52,0,0,1,11.57-7.26A15.08,15.08,0,0,1,907,22.79h0a17.06,17.06,0,0,1,16.45-4.68,15.27,15.27,0,0,1,11.66,11.56h0a17.38,17.38,0,0,1,11.26,8.57,14.92,14.92,0,0,1,.33,13.4h0a19,19,0,0,1,3,20.21A22.21,22.21,0,0,1,932,84.4a17.33,17.33,0,0,1-9.93,15.18,20.75,20.75,0,0,1-19.37-.49c-2.51,7.58-9.56,13.16-18.11,14.32a23.24,23.24,0,0,1-21.88-8.87,27.6,27.6,0,0,1-19.61,2.59,25.41,25.41,0,0,1-15.75-11h0A14.81,14.81,0,0,1,812.82,89a12.26,12.26,0,0,1,2.35-14.92h0a12.82,12.82,0,0,1-6.79-14.2c1.32-5.58,6.4-9.76,12.59-10.34Z"/><path class="cls-8" d="M815.16,74.06h0a15.44,15.44,0,0,0,8.39,1.77m3.84,20.28a15.6,15.6,0,0,0,3.67-.85m31.69,9.28a19.94,19.94,0,0,1-2.21-3.87m42.21-1.58h0a19,19,0,0,0,.88-4.24M932,84.4c.06-6.74-4.13-12.91-10.77-15.86m25.39-16.91a16.34,16.34,0,0,1-4.8,5.95m-6.8-27.91h0a13.39,13.39,0,0,1,.25,2.81M907,22.79h0a14.53,14.53,0,0,0-2.46,3.58m-22-1.47h0A12.48,12.48,0,0,0,881.35,28m-26.8.84h0a22.28,22.28,0,0,1,4.31,3M821.08,49.21h0a18.9,18.9,0,0,0,.75,3.15"/><path class="cls-4" d="M821.08,49.21h0c-1.15-7.74,2.63-15.41,9.76-19.75a24.18,24.18,0,0,1,23.71-.63h0a17.68,17.68,0,0,1,12.92-8.39,18.73,18.73,0,0,1,15.07,4.45h0a14.52,14.52,0,0,1,11.57-7.26A15.08,15.08,0,0,1,907,22.79h0a17.06,17.06,0,0,1,16.45-4.68,15.27,15.27,0,0,1,11.66,11.56h0a17.38,17.38,0,0,1,11.26,8.57,14.92,14.92,0,0,1,.33,13.4h0a19,19,0,0,1,3,20.21A22.21,22.21,0,0,1,932,84.4a17.33,17.33,0,0,1-9.93,15.18,20.75,20.75,0,0,1-19.37-.49c-2.51,7.58-9.56,13.16-18.11,14.32a23.24,23.24,0,0,1-21.88-8.87,27.6,27.6,0,0,1-19.61,2.59,25.41,25.41,0,0,1-15.75-11h0A14.81,14.81,0,0,1,812.82,89a12.26,12.26,0,0,1,2.35-14.92h0a12.82,12.82,0,0,1-6.79-14.2c1.32-5.58,6.4-9.76,12.59-10.34Z"/><path class="cls-4" d="M815.16,74.06h0a15.44,15.44,0,0,0,8.39,1.77m3.84,20.28a15.6,15.6,0,0,0,3.67-.85m31.69,9.28a19.94,19.94,0,0,1-2.21-3.87m42.21-1.58h0a19,19,0,0,0,.88-4.24M932,84.4c.06-6.74-4.13-12.91-10.77-15.86m25.39-16.91a16.34,16.34,0,0,1-4.8,5.95m-6.8-27.91h0a13.39,13.39,0,0,1,.25,2.81M907,22.79h0a14.53,14.53,0,0,0-2.46,3.58m-22-1.47h0A12.48,12.48,0,0,0,881.35,28m-26.8.84h0a22.28,22.28,0,0,1,4.31,3M821.08,49.21h0a18.9,18.9,0,0,0,.75,3.15"/><path d="M837.46,56l1.66-.27a2.35,2.35,0,0,0,.77,1.53,2.77,2.77,0,0,0,1.78.52,2.58,2.58,0,0,0,1.7-.47,1.39,1.39,0,0,0,.56-1.09,1,1,0,0,0-.48-.89,7.45,7.45,0,0,0-1.7-.56,17.27,17.27,0,0,1-2.56-.8A2.54,2.54,0,0,1,838,50.52a2.87,2.87,0,0,1,.83-.94,3.62,3.62,0,0,1,1.06-.48,4.94,4.94,0,0,1,1.44-.2,5.58,5.58,0,0,1,2,.34,2.64,2.64,0,0,1,1.28.91,3.42,3.42,0,0,1,.58,1.52l-1.62.22a1.73,1.73,0,0,0-.66-1.17,2.3,2.3,0,0,0-1.5-.44,2.65,2.65,0,0,0-1.64.39,1.09,1.09,0,0,0-.48.88,1,1,0,0,0,.2.59,1.45,1.45,0,0,0,.64.44q.25.09,1.47.44a21.27,21.27,0,0,1,2.47.77,2.37,2.37,0,0,1,1.5,2.31,2.86,2.86,0,0,1-.48,1.58,3.15,3.15,0,0,1-1.41,1.14,5.28,5.28,0,0,1-2.08.39,4.68,4.68,0,0,1-2.94-.8A3.73,3.73,0,0,1,837.46,56Zm13.66,1.44.23,1.48a6.52,6.52,0,0,1-1.27.14,2.9,2.9,0,0,1-1.41-.28,1.67,1.67,0,0,1-.7-.75,6.07,6.07,0,0,1-.2-2V50.43h-1.23V49.12h1.23V46.68l1.66-1v3.44h1.69v1.31h-1.69v5.75a3.28,3.28,0,0,0,.08.92.75.75,0,0,0,.3.33,1.11,1.11,0,0,0,.58.13A4.76,4.76,0,0,0,851.12,57.48Zm8,1.5V57.52A3.59,3.59,0,0,1,856,59.2a4.08,4.08,0,0,1-1.62-.33,2.85,2.85,0,0,1-1.12-.84,3.25,3.25,0,0,1-.52-1.23,9.34,9.34,0,0,1-.09-1.56V49.12h1.67v5.47a10.6,10.6,0,0,0,.09,1.77,1.72,1.72,0,0,0,.67,1,2.09,2.09,0,0,0,1.27.38,2.79,2.79,0,0,0,1.41-.37,2.13,2.13,0,0,0,.92-1,5.21,5.21,0,0,0,.28-1.94V49.12h1.67V59Zm4.33,0V50.43h-1.48V49.12h1.48v-1a4.68,4.68,0,0,1,.17-1.47,2,2,0,0,1,.84-1,3,3,0,0,1,1.7-.41,8.8,8.8,0,0,1,1.56.16l-.25,1.47a5.51,5.51,0,0,0-1-.09,1.45,1.45,0,0,0-1.08.33,1.72,1.72,0,0,0-.31,1.2v.91H867v1.31h-1.92V59Zm5.18,0V50.43h-1.48V49.12h1.48v-1a4.69,4.69,0,0,1,.17-1.47,2,2,0,0,1,.84-1,3.05,3.05,0,0,1,1.7-.41,8.8,8.8,0,0,1,1.56.16l-.25,1.47a5.51,5.51,0,0,0-1-.09,1.45,1.45,0,0,0-1.08.33,1.72,1.72,0,0,0-.31,1.2v.91h1.92v1.31h-1.92V59Z"/><path d="M838.13,81V67.38h1.67v4.88a3.73,3.73,0,0,1,3-1.36,3.87,3.87,0,0,1,1.89.44,2.46,2.46,0,0,1,1.16,1.19,5.34,5.34,0,0,1,.36,2.2V81h-1.67V74.73a2.53,2.53,0,0,0-.55-1.81,2,2,0,0,0-1.53-.58,2.7,2.7,0,0,0-1.41.39,2.15,2.15,0,0,0-.92,1,4.72,4.72,0,0,0-.28,1.81V81Zm16.81-1.22a6.32,6.32,0,0,1-1.8,1.13,5.35,5.35,0,0,1-1.84.31,3.61,3.61,0,0,1-2.48-.78,2.63,2.63,0,0,1-.87-2,2.72,2.72,0,0,1,1.19-2.28,4.09,4.09,0,0,1,1.2-.55,10,10,0,0,1,1.48-.25,16,16,0,0,0,3-.58v-.44a1.86,1.86,0,0,0-.47-1.44,2.81,2.81,0,0,0-1.91-.56,3,3,0,0,0-1.73.41,2.48,2.48,0,0,0-.83,1.47l-1.64-.23a4.2,4.2,0,0,1,.73-1.69,3.24,3.24,0,0,1,1.47-1,6.45,6.45,0,0,1,2.25-.36,5.87,5.87,0,0,1,2,.3,2.72,2.72,0,0,1,1.16.75,2.56,2.56,0,0,1,.52,1.14,8.27,8.27,0,0,1,.09,1.53v2.23a27.12,27.12,0,0,0,.09,3A3.56,3.56,0,0,0,857,81h-1.75A3.28,3.28,0,0,1,854.95,79.76ZM854.81,76a13,13,0,0,1-2.73.63,6,6,0,0,0-1.45.33,1.48,1.48,0,0,0-.66.55,1.43,1.43,0,0,0-.23.8,1.46,1.46,0,0,0,.5,1.13,2.23,2.23,0,0,0,1.48.44,3.45,3.45,0,0,0,1.72-.42,2.75,2.75,0,0,0,1.11-1.16,4.14,4.14,0,0,0,.27-1.67Zm4.08,8.72V71.12h1.53V72.4a3.71,3.71,0,0,1,1.2-1.12,3.38,3.38,0,0,1,1.64-.37,3.86,3.86,0,0,1,3.69,2.48,7,7,0,0,1,0,5.33,4.1,4.1,0,0,1-1.58,1.84,4.05,4.05,0,0,1-2.17.64,3.28,3.28,0,0,1-1.52-.34,3.5,3.5,0,0,1-1.08-.89v4.8Zm1.52-8.66a4.3,4.3,0,0,0,.77,2.81,2.38,2.38,0,0,0,3.77,0,4.45,4.45,0,0,0,.8-2.92,4.31,4.31,0,0,0-.78-2.81,2.31,2.31,0,0,0-1.84-.94,2.42,2.42,0,0,0-1.89,1A4.49,4.49,0,0,0,860.4,76.1Zm8.86,8.66V71.12h1.53V72.4a3.7,3.7,0,0,1,1.2-1.12,3.38,3.38,0,0,1,1.64-.37,3.86,3.86,0,0,1,3.69,2.48,7,7,0,0,1,0,5.33,4.1,4.1,0,0,1-1.58,1.84,4.05,4.05,0,0,1-2.17.64,3.28,3.28,0,0,1-1.52-.34,3.5,3.5,0,0,1-1.08-.89v4.8Zm1.52-8.66a4.3,4.3,0,0,0,.77,2.81,2.38,2.38,0,0,0,3.77,0,4.45,4.45,0,0,0,.8-2.92,4.31,4.31,0,0,0-.78-2.81,2.31,2.31,0,0,0-1.84-.94,2.42,2.42,0,0,0-1.89,1A4.49,4.49,0,0,0,870.78,76.1Zm15.61,1.7,1.72.22a4.23,4.23,0,0,1-1.52,2.34,5.12,5.12,0,0,1-6.23-.5,5.2,5.2,0,0,1-1.27-3.73,5.49,5.49,0,0,1,1.27-3.86,4.34,4.34,0,0,1,3.33-1.37,4.22,4.22,0,0,1,3.23,1.34,5.37,5.37,0,0,1,1.25,3.8q0,.14,0,.44h-7.34a3.77,3.77,0,0,0,.92,2.48,2.75,2.75,0,0,0,2.06.86,2.55,2.55,0,0,0,1.55-.47A3.25,3.25,0,0,0,886.39,77.81Zm-5.48-2.7h5.5a3.35,3.35,0,0,0-.62-1.86,2.56,2.56,0,0,0-2.08-1,2.66,2.66,0,0,0-1.94.78A3,3,0,0,0,880.9,75.1ZM890,81V71.12h1.5v1.41a3.56,3.56,0,0,1,3.14-1.62,4,4,0,0,1,1.64.33,2.41,2.41,0,0,1,1.11.84,3.24,3.24,0,0,1,.53,1.22,9.53,9.53,0,0,1,.09,1.63V81h-1.67V75a4.26,4.26,0,0,0-.2-1.52,1.54,1.54,0,0,0-.69-.81,2.25,2.25,0,0,0-1.17-.3,2.74,2.74,0,0,0-1.84.67,3.37,3.37,0,0,0-.77,2.58V81Zm9.7-2.94,1.66-.27a2.35,2.35,0,0,0,.77,1.53,2.77,2.77,0,0,0,1.78.52,2.58,2.58,0,0,0,1.7-.47,1.39,1.39,0,0,0,.56-1.09,1,1,0,0,0-.48-.89,7.45,7.45,0,0,0-1.7-.56,17.27,17.27,0,0,1-2.56-.8,2.54,2.54,0,0,1-1.14-3.48,2.87,2.87,0,0,1,.83-.94,3.62,3.62,0,0,1,1.06-.48,4.94,4.94,0,0,1,1.44-.2,5.58,5.58,0,0,1,2,.34,2.64,2.64,0,0,1,1.28.91,3.42,3.42,0,0,1,.58,1.52l-1.62.22a1.73,1.73,0,0,0-.66-1.17,2.3,2.3,0,0,0-1.5-.44,2.65,2.65,0,0,0-1.64.39,1.09,1.09,0,0,0-.48.88,1,1,0,0,0,.2.59,1.45,1.45,0,0,0,.64.44q.25.09,1.47.44a21.27,21.27,0,0,1,2.47.77,2.37,2.37,0,0,1,1.5,2.31,2.86,2.86,0,0,1-.48,1.58A3.15,3.15,0,0,1,906,80.81a5.28,5.28,0,0,1-2.08.39,4.68,4.68,0,0,1-2.94-.8A3.73,3.73,0,0,1,899.72,78Z"/><path class="cls-8" d="M247.45,13.56h95.69V45.84H247.45Z"/><path d="M267.62,35.71l1.8.45a6.09,6.09,0,0,1-2,3.39,5.63,5.63,0,0,1-3.59,1.16,6.48,6.48,0,0,1-3.58-.89,5.67,5.67,0,0,1-2.09-2.59,9.31,9.31,0,0,1-.72-3.66,8.12,8.12,0,0,1,.8-3.7,5.52,5.52,0,0,1,2.31-2.39,6.71,6.71,0,0,1,3.3-.83,5.55,5.55,0,0,1,3.44,1,5.35,5.35,0,0,1,1.94,2.91l-1.77.42A4.13,4.13,0,0,0,266,28.87a3.64,3.64,0,0,0-2.27-.69,4.44,4.44,0,0,0-2.62.75,4,4,0,0,0-1.48,2,8.2,8.2,0,0,0-.42,2.61,8.4,8.4,0,0,0,.5,3,3.83,3.83,0,0,0,1.58,1.92,4.45,4.45,0,0,0,2.31.64,3.91,3.91,0,0,0,2.56-.86A4.5,4.5,0,0,0,267.62,35.71Zm2.93-.16a5.09,5.09,0,0,1,1.53-4.06,4.57,4.57,0,0,1,3.09-1.09,4.37,4.37,0,0,1,3.31,1.34,5,5,0,0,1,1.3,3.67,6.48,6.48,0,0,1-.58,3,4,4,0,0,1-1.66,1.69,4.84,4.84,0,0,1-2.37.59,4.44,4.44,0,0,1-3.34-1.33A5.27,5.27,0,0,1,270.55,35.55Zm1.72,0a4.17,4.17,0,0,0,.83,2.83,2.66,2.66,0,0,0,2.08.94,2.61,2.61,0,0,0,2.06-.94,4.31,4.31,0,0,0,.83-2.89,4.06,4.06,0,0,0-.83-2.77,2.75,2.75,0,0,0-4.14,0A4.17,4.17,0,0,0,272.27,35.55Zm9.28,4.92V30.62H283V32a3.42,3.42,0,0,1,1.22-1.16A3.45,3.45,0,0,1,286,30.4a3.26,3.26,0,0,1,1.8.45,2.39,2.39,0,0,1,1,1.28,3.54,3.54,0,0,1,3-1.73,3,3,0,0,1,2.25.81,3.45,3.45,0,0,1,.8,2.5v6.77h-1.67v-6.2a4.7,4.7,0,0,0-.16-1.44,1.33,1.33,0,0,0-.59-.72,1.84,1.84,0,0,0-1-.27,2.33,2.33,0,0,0-1.72.69,3,3,0,0,0-.69,2.22v5.72h-1.67V34.07a2.77,2.77,0,0,0-.41-1.66,1.54,1.54,0,0,0-1.34-.56,2.46,2.46,0,0,0-1.31.37,2,2,0,0,0-.86,1.08,6.22,6.22,0,0,0-.27,2.06v5.11Zm15.54,3.78V30.62h1.53V31.9a3.71,3.71,0,0,1,1.2-1.12,3.38,3.38,0,0,1,1.64-.37,3.86,3.86,0,0,1,3.69,2.48,7,7,0,0,1,0,5.33,4.1,4.1,0,0,1-1.58,1.84,4.05,4.05,0,0,1-2.17.64,3.28,3.28,0,0,1-1.52-.34,3.5,3.5,0,0,1-1.08-.89v4.8Zm1.52-8.66a4.3,4.3,0,0,0,.77,2.81,2.38,2.38,0,0,0,3.77,0,4.45,4.45,0,0,0,.8-2.92,4.31,4.31,0,0,0-.78-2.81,2.31,2.31,0,0,0-1.84-.94,2.42,2.42,0,0,0-1.89,1A4.49,4.49,0,0,0,298.6,35.6Zm8.88-6.81V26.88h1.67v1.91Zm0,11.69V30.62h1.67v9.86Zm4.1,0V26.88h1.67V40.48ZM322.5,37.3l1.72.22a4.23,4.23,0,0,1-1.52,2.34,5.12,5.12,0,0,1-6.23-.5,5.2,5.2,0,0,1-1.27-3.73,5.49,5.49,0,0,1,1.27-3.86,4.34,4.34,0,0,1,3.33-1.37A4.22,4.22,0,0,1,323,31.74a5.37,5.37,0,0,1,1.25,3.8q0,.14,0,.44h-7.34a3.77,3.77,0,0,0,.92,2.48,2.75,2.75,0,0,0,2.06.86,2.55,2.55,0,0,0,1.55-.47A3.25,3.25,0,0,0,322.5,37.3ZM317,34.6h5.5a3.35,3.35,0,0,0-.62-1.86,2.56,2.56,0,0,0-2.08-1,2.66,2.66,0,0,0-1.94.78A3,3,0,0,0,317,34.6Zm9.09,5.88V30.62h1.5v1.5a4,4,0,0,1,1.06-1.37,1.82,1.82,0,0,1,1.08-.34,3.23,3.23,0,0,1,1.72.55l-.58,1.55a2.41,2.41,0,0,0-1.23-.36,1.6,1.6,0,0,0-1,.33,1.83,1.83,0,0,0-.61.91,6.46,6.46,0,0,0-.28,2v5.16Z"/><path class="cls-8" d="M642.39,13.56h118V45.84h-118Z"/><path d="M653.15,40.48V26.88H655V40.48Zm4.67,0V30.62h1.5V32a3.56,3.56,0,0,1,3.14-1.62,4,4,0,0,1,1.64.33,2.41,2.41,0,0,1,1.11.84,3.24,3.24,0,0,1,.53,1.22,9.53,9.53,0,0,1,.09,1.63v6.06h-1.67v-6A4.26,4.26,0,0,0,664,33a1.54,1.54,0,0,0-.69-.81,2.25,2.25,0,0,0-1.17-.3,2.74,2.74,0,0,0-1.84.67,3.37,3.37,0,0,0-.77,2.58v5.38Zm14-1.5.23,1.48a6.52,6.52,0,0,1-1.27.14,2.9,2.9,0,0,1-1.41-.28,1.67,1.67,0,0,1-.7-.75,6.07,6.07,0,0,1-.2-2V31.93h-1.23V30.62h1.23V28.18l1.66-1v3.44h1.69v1.31h-1.69v5.75a3.28,3.28,0,0,0,.08.92.75.75,0,0,0,.3.33,1.11,1.11,0,0,0,.58.13A4.76,4.76,0,0,0,671.85,39Zm8.28-1.67,1.72.22a4.23,4.23,0,0,1-1.52,2.34,5.12,5.12,0,0,1-6.23-.5,5.2,5.2,0,0,1-1.27-3.73,5.49,5.49,0,0,1,1.27-3.86,4.34,4.34,0,0,1,3.33-1.37,4.22,4.22,0,0,1,3.23,1.34,5.37,5.37,0,0,1,1.25,3.8q0,.14,0,.44h-7.34a3.77,3.77,0,0,0,.92,2.48,2.75,2.75,0,0,0,2.06.86,2.55,2.55,0,0,0,1.55-.47A3.25,3.25,0,0,0,680.13,37.3Zm-5.48-2.7h5.5a3.35,3.35,0,0,0-.62-1.86,2.56,2.56,0,0,0-2.08-1,2.66,2.66,0,0,0-1.94.78A3,3,0,0,0,674.64,34.6Zm9.09,5.88V30.62h1.5v1.5a4,4,0,0,1,1.06-1.37,1.82,1.82,0,0,1,1.08-.34,3.23,3.23,0,0,1,1.72.55l-.58,1.55a2.41,2.41,0,0,0-1.23-.36,1.6,1.6,0,0,0-1,.33,1.83,1.83,0,0,0-.61.91,6.46,6.46,0,0,0-.28,2v5.16ZM690,44.26V30.62h1.53V31.9a3.7,3.7,0,0,1,1.2-1.12,3.38,3.38,0,0,1,1.64-.37A3.86,3.86,0,0,1,698,32.88a7,7,0,0,1,0,5.33,4.1,4.1,0,0,1-1.58,1.84,4.05,4.05,0,0,1-2.17.64,3.28,3.28,0,0,1-1.52-.34,3.5,3.5,0,0,1-1.08-.89v4.8Zm1.52-8.66a4.3,4.3,0,0,0,.77,2.81,2.38,2.38,0,0,0,3.77,0,4.45,4.45,0,0,0,.8-2.92,4.31,4.31,0,0,0-.78-2.81,2.31,2.31,0,0,0-1.84-.94,2.42,2.42,0,0,0-1.89,1A4.49,4.49,0,0,0,691.48,35.6Zm8.84,4.88V30.62h1.5v1.5a4,4,0,0,1,1.06-1.37A1.82,1.82,0,0,1,704,30.4a3.23,3.23,0,0,1,1.72.55l-.58,1.55a2.41,2.41,0,0,0-1.23-.36,1.6,1.6,0,0,0-1,.33,1.83,1.83,0,0,0-.61.91,6.46,6.46,0,0,0-.28,2v5.16Zm13-3.17,1.72.22a4.23,4.23,0,0,1-1.52,2.34,5.12,5.12,0,0,1-6.23-.5A5.2,5.2,0,0,1,706,35.63a5.49,5.49,0,0,1,1.27-3.86,4.34,4.34,0,0,1,3.33-1.37,4.22,4.22,0,0,1,3.23,1.34,5.37,5.37,0,0,1,1.25,3.8q0,.14,0,.44h-7.34a3.77,3.77,0,0,0,.92,2.48,2.75,2.75,0,0,0,2.06.86,2.55,2.55,0,0,0,1.55-.47A3.25,3.25,0,0,0,713.3,37.3Zm-5.48-2.7h5.5a3.35,3.35,0,0,0-.62-1.86,2.56,2.56,0,0,0-2.08-1,2.66,2.66,0,0,0-1.94.78A3,3,0,0,0,707.82,34.6ZM720.59,39l.23,1.48a6.52,6.52,0,0,1-1.27.14,2.9,2.9,0,0,1-1.41-.28,1.67,1.67,0,0,1-.7-.75,6.07,6.07,0,0,1-.2-2V31.93H716V30.62h1.23V28.18l1.66-1v3.44h1.69v1.31H718.9v5.75a3.28,3.28,0,0,0,.08.92.75.75,0,0,0,.3.33,1.11,1.11,0,0,0,.58.13A4.76,4.76,0,0,0,720.59,39Zm8.28-1.67,1.72.22a4.23,4.23,0,0,1-1.52,2.34,5.12,5.12,0,0,1-6.23-.5,5.2,5.2,0,0,1-1.27-3.73,5.49,5.49,0,0,1,1.27-3.86,4.34,4.34,0,0,1,3.33-1.37,4.22,4.22,0,0,1,3.23,1.34,5.37,5.37,0,0,1,1.25,3.8q0,.14,0,.44h-7.34a3.77,3.77,0,0,0,.92,2.48,2.75,2.75,0,0,0,2.06.86,2.55,2.55,0,0,0,1.55-.47A3.25,3.25,0,0,0,728.86,37.3Zm-5.48-2.7h5.5a3.35,3.35,0,0,0-.62-1.86,2.56,2.56,0,0,0-2.08-1,2.66,2.66,0,0,0-1.94.78A3,3,0,0,0,723.38,34.6Zm9.09,5.88V30.62H734v1.5A4,4,0,0,1,735,30.74a1.82,1.82,0,0,1,1.08-.34,3.23,3.23,0,0,1,1.72.55l-.58,1.55a2.41,2.41,0,0,0-1.23-.36,1.6,1.6,0,0,0-1,.33,1.83,1.83,0,0,0-.61.91,6.46,6.46,0,0,0-.28,2v5.16Z"/></g></svg>